<?xml version="1.0" encoding="UTF-8"?><svg id="uuid-71af3a46-3f20-4b26-87c1-7a7cecd7b979" xmlns="http://www.w3.org/2000/svg" viewBox="0 0 305.08 305.08"><path class="uuid-36691477-8b54-436f-a81a-97af0c20a0d4" d="M215.19,238.72c-24.92-10.02-42.82-23.71-49.11-37.56l12.74-5.79c9.36,20.59,63.33,44.8,101.3,40.79,15.77-24.02,24.96-52.74,24.96-83.62C305.08,68.29,236.79,0,152.54,0S0,68.29,0,152.54s68.29,152.54,152.54,152.54c46.94,0,88.92-21.21,116.9-54.55-16.77-.37-36.05-4.48-54.25-11.8ZM103.61,105.65c0,23.88,16.97,44.57,40.34,49.2l-2.72,13.73c-4.01-.8-7.87-1.97-11.55-3.46-7.14,8.69-10.95,12.82-13.84,15.94-4.12,4.46-5.83,6.32-13.32,17.65-14.08,23.12-6.53,40.21,1.62,52.52l-11.67,7.73c-15.12-22.82-15.72-44.95-1.83-67.66l.13-.21c8.17-12.38,10.38-14.77,14.79-19.54,2.52-2.73,5.8-6.28,11.59-13.25-15.46-10.79-25.79-28.15-27.33-47.6-10.61,4.82-22.64,8.92-30.54,11.06,.31,2.66,2.23,7.67,6.52,11.09,5,3.99,11.27,4.09,18.62,.29l6.42,12.44c-6.16,3.18-11.64,4.34-16.37,4.34-7.76,0-13.48-3.15-16.85-5.7-8.51-6.46-13.79-18.17-12.04-26.65,.93-4.51,3.92-7.8,7.98-8.8,8.41-2.07,25.26-7.78,36.98-14.01,5.18-30.21,31.55-53.29,63.22-53.29,18.34,0,35.98,7.67,48.41,21.05,11.32,12.19,16.91,27.68,15.74,43.63-1.58,21.38-11.62,37.81-17.62,47.63-.84,1.38-1.7,2.78-2.34,3.9,2.13,7.13,10.79,29.01,36.72,29.39l-.21,14c-33.38-.49-47.83-28.19-50.81-42.76l-.42-2.04,.76-1.93c.84-2.13,2.31-4.53,4.34-7.85,5.34-8.74,14.27-23.37,15.6-41.36,.89-12.02-3.39-23.77-12.03-33.07-9.79-10.53-23.69-16.58-38.15-16.58-27.66,0-50.16,22.5-50.16,50.16Zm30.05-11.53l-.03,10.59c-.32,3.01-2.87,5.36-5.97,5.36s-5.64-2.34-5.97-5.36h-.03v-10.59c0-3.31,2.69-6,6-6s6,2.69,6,6Z"/></svg>