<?xml version="1.0" encoding="UTF-8"?><svg id="uuid-af4ad6de-21d4-46a3-b2d4-b61a7835b528" xmlns="http://www.w3.org/2000/svg" viewBox="0 0 319.94 319.94"><path class="uuid-5f89ddba-d89c-4a81-9751-c17726787832" d="M247.26,205.98c-34.21-.5-50.47-25.81-54.28-39.12l-.84-2.94,1.12-2.84c.9-2.29,2.41-4.75,4.49-8.16,5.24-8.58,14.02-22.95,15.31-40.47,.84-11.46-3.24-22.67-11.5-31.56-9.41-10.13-22.78-15.94-36.69-15.94-26.56,0-48.16,21.6-48.16,48.16,0,22.92,16.29,42.79,38.73,47.24l-3.5,17.66c-30.85-6.11-53.23-33.41-53.23-64.9,0-36.48,29.68-66.16,66.16-66.16,18.89,0,37.07,7.9,49.87,21.69,11.71,12.6,17.48,28.63,16.26,45.14-1.61,21.86-12.21,39.21-17.9,48.53-.53,.86-1.11,1.81-1.63,2.69,3.09,6.85,12.73,22.65,36.04,23l-.27,18Z"/><path class="uuid-5f89ddba-d89c-4a81-9751-c17726787832" d="M101.9,267.53c-15.59-23.53-16.2-46.37-1.87-69.8l.17-.26c7.95-12.04,10.21-14.62,14.99-19.8,3.16-3.42,7.5-8.11,16.57-19.35l14,11.31c-9.45,11.7-14.02,16.65-17.35,20.25-4.04,4.37-5.72,6.19-13.1,17.37-13.39,22.01-6.71,37.8,1.6,50.35l-15.01,9.94Z"/><path class="uuid-5f89ddba-d89c-4a81-9751-c17726787832" d="M85.57,159.41c-8.3,0-14.43-3.38-18.05-6.12-9.07-6.89-14.69-19.47-12.79-28.65,1.09-5.28,4.63-9.14,9.46-10.33,9.28-2.28,28-8.84,39.01-15.21l9.01,15.58c-11.54,6.68-28.57,12.85-39.49,15.98,.75,2.55,2.69,6.2,6.07,8.58,4.28,3.01,9.46,2.88,15.82-.4l8.25,16c-6.5,3.35-12.29,4.58-17.3,4.58Z"/><path class="uuid-5f89ddba-d89c-4a81-9751-c17726787832" d="M259.42,257.87c-13.24,0-26.99-2.11-40.08-6.3-22.65-7.25-39.84-19.63-45.97-33.12l16.39-7.45c7.9,17.37,55.06,36.59,93.93,25.76l4.83,17.34c-9.04,2.52-18.92,3.77-29.1,3.77Z"/><path class="uuid-5f89ddba-d89c-4a81-9751-c17726787832" d="M140.76,118.53c-3.1,0-5.64-2.34-5.97-5.36h-.03v-10.59c0-3.31,2.69-6,6-6s6,2.69,6,6l-.03,10.59c-.32,3.01-2.87,5.36-5.97,5.36Z"/><path class="uuid-5f89ddba-d89c-4a81-9751-c17726787832" d="M159.97,319.94C71.76,319.94,0,248.18,0,159.97S71.76,0,159.97,0s159.97,71.76,159.97,159.97c0,30.73-8.74,60.58-25.27,86.33l-15.15-9.73c14.67-22.84,22.42-49.32,22.42-76.6,0-78.28-63.69-141.97-141.97-141.97S18,81.69,18,159.97s63.69,141.97,141.97,141.97c24.22,0,48.12-6.2,69.12-17.93l8.78,15.71c-23.68,13.23-50.62,20.22-77.9,20.22Z"/><path class="uuid-5f89ddba-d89c-4a81-9751-c17726787832" d="M288.25,253.2l-14.54-10.62c1.38-1.9,2.92-3.27,4.15-4.38,.64-.58,1.44-1.3,1.66-1.63l15.15,9.72c-1.52,2.37-3.32,3.99-4.76,5.29-.67,.61-1.37,1.24-1.65,1.62Z"/></svg>