<?xml version="1.0" encoding="UTF-8"?><svg id="uuid-fe87ecb6-e01a-4918-a99e-a2befcd72799" xmlns="http://www.w3.org/2000/svg" viewBox="0 0 323.94 323.94"><path class="uuid-d90b1d9c-7751-44f4-a605-2ed6a9cce404" d="M249.23,209.98c-35.39-.52-52.22-26.76-56.17-40.57l-1.03-3.59,1.37-3.48c.97-2.45,2.51-4.98,4.64-8.47,5.15-8.43,13.77-22.54,15.02-39.57,.8-10.9-3.09-21.57-10.97-30.06-9.03-9.72-21.87-15.3-35.22-15.3-25.45,0-46.16,20.71-46.16,46.16,0,21.97,15.61,41.02,37.12,45.28l-4.28,21.58c-31.78-6.3-54.85-34.42-54.85-66.86,0-37.58,30.58-68.16,68.16-68.16,19.45,0,38.16,8.14,51.34,22.32,12.09,13.01,18.05,29.58,16.79,46.65-1.65,22.34-12.41,39.96-18.19,49.42-.34,.55-.7,1.15-1.05,1.73,1.18,2.4,3.08,5.67,5.92,8.87,6.93,7.82,16.3,11.87,27.87,12.04l-.32,22Z"/><path class="uuid-d90b1d9c-7751-44f4-a605-2ed6a9cce404" d="M102.24,270.63c-16.06-24.25-16.69-47.78-1.91-71.95l.21-.32c8.03-12.17,10.33-14.79,15.19-20.05,3.14-3.4,7.45-8.07,16.49-19.25l17.11,13.82c-9.49,11.75-14.09,16.73-17.44,20.36-3.96,4.28-5.61,6.07-12.88,17.08-12.78,21.04-6.38,36.16,1.58,48.17l-18.34,12.15Z"/><path class="uuid-d90b1d9c-7751-44f4-a605-2ed6a9cce404" d="M87.52,163.34c-6.96,0-13.54-2.16-19.2-6.46-9.79-7.44-15.61-20.61-13.54-30.65,1.25-6.06,5.34-10.49,10.94-11.87,9.16-2.26,27.64-8.72,38.48-15l11.02,19.04c-10.96,6.34-26.8,12.24-37.84,15.55,.96,2.04,2.6,4.4,4.96,5.91,1.3,.83,5.26,3.37,13.36-.81l10.08,19.55c-6.13,3.16-12.33,4.73-18.26,4.73Z"/><path class="uuid-d90b1d9c-7751-44f4-a605-2ed6a9cce404" d="M261.42,261.87c-13.45,0-27.41-2.15-40.7-6.4-23.53-7.53-40.73-19.99-47.18-34.19l20.03-9.1c4.23,9.31,20.05,17.93,33.86,22.34,19.54,6.25,40.58,7.09,57.72,2.32l5.91,21.19c-9.21,2.57-19.27,3.84-29.63,3.84Z"/><path class="uuid-d90b1d9c-7751-44f4-a605-2ed6a9cce404" d="M142.76,121.53c-4.2,0-7.65-3.24-7.97-7.36h-.03v-10.59c0-4.42,3.58-8,8-8s8,3.58,8,8l-.03,10.59c-.33,4.12-3.77,7.36-7.97,7.36Z"/><path class="uuid-d90b1d9c-7751-44f4-a605-2ed6a9cce404" d="M161.97,323.94C72.66,323.94,0,251.28,0,161.97S72.66,0,161.97,0s161.97,72.66,161.97,161.97c0,31.11-8.85,61.34-25.59,87.41l-18.51-11.89c14.46-22.51,22.1-48.63,22.1-75.52,0-77.18-62.79-139.97-139.97-139.97S22,84.79,22,161.97s62.79,139.97,139.97,139.97c23.88,0,47.44-6.11,68.15-17.68l10.73,19.21c-23.98,13.39-51.25,20.47-78.88,20.47Z"/><path class="uuid-d90b1d9c-7751-44f4-a605-2ed6a9cce404" d="M291.86,256.39l-17.76-12.98c1.51-2.06,3.13-3.52,4.43-4.69,.49-.45,1.17-1.05,1.36-1.3l18.46,11.96c-1.67,2.59-3.66,4.38-5.11,5.69-.5,.45-1.19,1.07-1.38,1.32Z"/></svg>